{
  "accessors": [
    {
      "bufferView": 1,
      "componentType": 5126,
      "count": 65532,
      "max": [
        1.9229059219360352,
        1.1127747297286987,
        4.2561249732971191
      ],
      "min": [
        -1.6798117160797119,
        -3.8498671054840088,
        1.8296656608581543
      ],
      "type": "VEC3"
    },
    {
      "bufferView": 1,
      "byteOffset": 786384,
      "componentType": 5126,
      "count": 65532,
      "max": [
        0.99999147653579712,
        0.9999660849571228,
        0.99986737966537476
      ],
      "min": [
        -0.99992448091506958,
        -0.99227219820022583,
        -0.9999924898147583
      ],
      "type": "VEC3"
    },
    {
      "bufferView": 0,
      "componentType": 5125,
      "count": 330576,
      "max": [
        65531
      ],
      "min": [
        0
      ],
      "type": "SCALAR"
    },
    {
      "bufferView": 1,
      "byteOffset": 1572768,
      "componentType": 5126,
      "count": 65532,
      "max": [
        0.55343323945999146,
        1.1130130290985107,
        4.2724246978759766
      ],
      "min": [
        -1.9337375164031982,
        -4.1565103530883789,
        1.8218390941619873
      ],
      "type": "VEC3"
    },
    {
      "bufferView": 1,
      "byteOffset": 2359152,
      "componentType": 5126,
      "count": 65532,
      "max": [
        0.99993377923965454,
        0.99999457597732544,
        0.99992740154266357
      ],
      "min": [
        -0.99999231100082397,
        -0.99967831373214722,
        -0.99998116493225098
      ],
      "type": "VEC3"
    },
    {
      "bufferView": 0,
      "byteOffset": 1322304,
      "componentType": 5125,
      "count": 294537,
      "max": [
        65531
      ],
      "min": [
        0
      ],
      "type": "SCALAR"
    },
    {
      "bufferView": 1,
      "byteOffset": 3145536,
      "componentType": 5126,
      "count": 65532,
      "max": [
        1.9229059219360352,
        4.0840263366699219,
        5.6649117469787598
      ],
      "min": [
        -1.9249235391616821,
        -4.1520023345947266,
        1.8218390941619873
      ],
      "type": "VEC3"
    },
    {
      "bufferView": 1,
      "byteOffset": 3931920,
      "componentType": 5126,
      "count": 65532,
      "max": [
        0.9999956488609314,
        0.9999890923500061,
        0.99986737966537476
      ],
      "min": [
        -0.99999231100082397,
        -0.99969279766082764,
        -0.99998116493225098
      ],
      "type": "VEC3"
    },
    {
      "bufferView": 0,
      "byteOffset": 2500452,
      "componentType": 5125,
      "count": 229626,
      "max": [
        65531
      ],
      "min": [
        0
      ],
      "type": "SCALAR"
    },
    {
      "bufferView": 1,
      "byteOffset": 4718304,
      "componentType": 5126,
      "count": 65532,
      "max": [
        2.2505526542663574,
        4.1912121772766113,
        5.7547793388366699
      ],
      "min": [
        -2.2683844566345215,
        -4.1878695487976074,
        2.4436490535736084
      ],
      "type": "VEC3"
    },
    {
      "bufferView": 1,
      "byteOffset": 5504688,
      "componentType": 5126,
      "count": 65532,
      "max": [
        0.99997192621231079,
        0.99999040365219116,
        0.99999749660491943
      ],
      "min": [
        -0.99999856948852539,
        -0.99987739324569702,
        -0.99998325109481812
      ],
      "type": "VEC3"
    },
    {
      "bufferView": 0,
      "byteOffset": 3418956,
      "componentType": 5125,
      "count": 292950,
      "max": [
        65531
      ],
      "min": [
        0
      ],
      "type": "SCALAR"
    },
    {
      "bufferView": 1,
      "byteOffset": 6291072,
      "componentType": 5126,
      "count": 65532,
      "max": [
        2.2683842182159424,
        4.1252937316894531,
        5.7540302276611328
      ],
      "min": [
        -2.2683844566345215,
        -4.1886649131774902,
        2.4465019702911377
      ],
      "type": "VEC3"
    },
    {
      "bufferView": 1,
      "byteOffset": 7077456,
      "componentType": 5126,
      "count": 65532,
      "max": [
        0.99997192621231079,
        0.99984133243560791,
        0.99997162818908691
      ],
      "min": [
        -0.99999856948852539,
        -0.99991297721862793,
        -0.99998581409454346
      ],
      "type": "VEC3"
    },
    {
      "bufferView": 0,
      "byteOffset": 4590756,
      "componentType": 5125,
      "count": 287733,
      "max": [
        65531
      ],
      "min": [
        0
      ],
      "type": "SCALAR"
    },
    {
      "bufferView": 1,
      "byteOffset": 7863840,
      "componentType": 5126,
      "count": 64603,
      "max": [
        2.2670154571533203,
        4.1912121772766113,
        5.7551684379577637
      ],
      "min": [
        -2.2683706283569336,
        -4.1912117004394531,
        2.4664857387542725
      ],
      "type": "VEC3"
    },
    {
      "bufferView": 1,
      "byteOffset": 8639076,
      "componentType": 5126,
      "count": 64603,
      "max": [
        0.9999956488609314,
        0.99992543458938599,
        0.99999749660491943
      ],
      "min": [
        -0.9999462366104126,
        -0.99996191263198853,
        -0.99997991323471069
      ],
      "type": "VEC3"
    },
    {
      "bufferView": 0,
      "byteOffset": 5741688,
      "componentType": 5125,
      "count": 237027,
      "max": [
        64602
      ],
      "min": [
        0
      ],
      "type": "SCALAR"
    }
  ],
  "asset": {
    "extras": {
      "author": "Fire & Bone (https://sketchfab.com/fireandbone)",
      "license": "CC-BY-4.0 (http://creativecommons.org/licenses/by/4.0/)",
      "source": "https://sketchfab.com/3d-models/alaskan-pine-marten-skull-07568b68a411444ebdf65dfd847379bd",
      "title": "Alaskan Pine Marten Skull"
    },
    "generator": "Sketchfab-9.34.0",
    "version": "2.0"
  },
  "bufferViews": [
    {
      "buffer": 0,
      "byteLength": 6689796,
      "byteOffset": 0,
      "name": "floatBufferViews",
      "target": 34963
    },
    {
      "buffer": 0,
      "byteLength": 9414312,
      "byteOffset": 6689796,
      "byteStride": 12,
      "name": "floatBufferViews",
      "target": 34962
    }
  ],
  "buffers": [
    {
      "byteLength": 16104108,
      "uri": "scene.bin"
    }
  ],
  "materials": [
    {
      "doubleSided": true,
      "name": "Scene_-_Root",
      "pbrMetallicRoughness": {
        "baseColorFactor": [
          1,
          1,
          1,
          1
        ],
        "metallicFactor": 0,
        "roughnessFactor": 0.59999999999999998
      }
    }
  ],
  "meshes": [
    {
      "primitives": [
        {
          "attributes": {
            "NORMAL": 1,
            "POSITION": 0
          },
          "indices": 2,
          "material": 0,
          "mode": 4
        }
      ]
    },
    {
      "primitives": [
        {
          "attributes": {
            "NORMAL": 4,
            "POSITION": 3
          },
          "indices": 5,
          "material": 0,
          "mode": 4
        }
      ]
    },
    {
      "primitives": [
        {
          "attributes": {
            "NORMAL": 7,
            "POSITION": 6
          },
          "indices": 8,
          "material": 0,
          "mode": 4
        }
      ]
    },
    {
      "primitives": [
        {
          "attributes": {
            "NORMAL": 10,
            "POSITION": 9
          },
          "indices": 11,
          "material": 0,
          "mode": 4
        }
      ]
    },
    {
      "primitives": [
        {
          "attributes": {
            "NORMAL": 13,
            "POSITION": 12
          },
          "indices": 14,
          "material": 0,
          "mode": 4
        }
      ]
    },
    {
      "primitives": [
        {
          "attributes": {
            "NORMAL": 16,
            "POSITION": 15
          },
          "indices": 17,
          "material": 0,
          "mode": 4
        }
      ]
    }
  ],
  "nodes": [
    {
      "children": [
        1
      ],
      "name": "RootNode (gltf orientation matrix)",
      "rotation": [
        -0.70710678118654746,
        -0,
        -0,
        0.70710678118654757
      ]
    },
    {
      "children": [
        2
      ],
      "name": "RootNode (model correction matrix)"
    },
    {
      "children": [
        3,
        4,
        5,
        6,
        7,
        8
      ],
      "name": "Alaskan_Pine_Marten_Skull.stl.cleaner.materialmerger.gles"
    },
    {
      "mesh": 0,
      "name": ""
    },
    {
      "mesh": 1,
      "name": ""
    },
    {
      "mesh": 2,
      "name": ""
    },
    {
      "mesh": 3,
      "name": ""
    },
    {
      "mesh": 4,
      "name": ""
    },
    {
      "mesh": 5,
      "name": ""
    }
  ],
  "scene": 0,
  "scenes": [
    {
      "name": "OSG_Scene",
      "nodes": [
        0
      ]
    }
  ]
}

